# xmcd
#
# Track frame offsets:
#	150
#	17497
#	40632
#	75040
#
# Disc length: 1395 seconds
#
# Revision: 1
# Processed by: cddbd v1.5.2PL0 Copyright (c) Steve Scherf et al.
# Submitted via: audiograbber 1.83.01
#
DISCID=15057104
DTITLE=Coconut Girl - Call 911 [CDM)
DYEAR=1999
DGENRE=Dance
TTITLE0=Call 911 (Radio Mix)
TTITLE1=Call 911 (Long Island Dance Mix)
TTITLE2=Call 911 (Goofy's Blue Forrest Mix)
TTITLE3=Call 911 (Edgar Tompson Mix)
EXTD=TR.
EXTT0=
EXTT1=
EXTT2=
EXTT3=
PLAYORDER=
